<svg width="39" height="39" viewBox="0 0 39 39" fill="none" xmlns="http://www.w3.org/2000/svg">
<path opacity="0.4" fill-rule="evenodd" clip-rule="evenodd" d="M19.4643 38.9327C25.3773 38.9327 30.1708 30.2173 30.1708 19.4663C30.1708 8.71538 25.3773 0 19.4643 0C13.5513 0 8.75781 8.71538 8.75781 19.4663C8.75781 30.2173 13.5513 38.9327 19.4643 38.9327ZM22.4106 13.6777C21.3488 13.0595 20.1863 12.7504 18.9229 12.7504H14.6087C14.2727 12.7504 13.9837 12.8713 13.7418 13.1133C13.4999 13.3417 13.3789 13.6307 13.3789 13.9802V25.2294C13.3789 25.5654 13.4999 25.8544 13.7418 26.0963C13.9837 26.3382 14.2727 26.4592 14.6087 26.4592H18.9229C20.1863 26.4592 21.3488 26.1568 22.4106 25.552C23.4723 24.9338 24.3123 24.1005 24.9306 23.0521C25.5623 21.9904 25.8781 20.8413 25.8781 19.6048C25.8781 18.3683 25.5623 17.2259 24.9306 16.1776C24.3123 15.1158 23.4723 14.2825 22.4106 13.6777ZM21.1607 23.4957C20.4752 23.8989 19.7293 24.1005 18.9229 24.1005H15.8384V15.1091H18.9229C19.7293 15.1091 20.4752 15.3107 21.1607 15.7139C21.8595 16.1171 22.4106 16.6681 22.8138 17.367C23.217 18.0525 23.4186 18.7984 23.4186 19.6048C23.4186 20.4112 23.217 21.1638 22.8138 21.8627C22.4106 22.5481 21.8595 23.0925 21.1607 23.4957Z" fill="black"/>
<path opacity="0.4" fill-rule="evenodd" clip-rule="evenodd" d="M38.9327 19.4663C38.9327 13.5532 30.2173 8.75977 19.4663 8.75977C8.71538 8.75977 0 13.5532 0 19.4663C0 25.3793 8.71538 30.1727 19.4663 30.1727C30.2173 30.1727 38.9327 25.3793 38.9327 19.4663ZM22.4137 13.6779C21.352 13.0597 20.1894 12.7506 18.926 12.7506H14.6118C14.2758 12.7506 13.9868 12.8715 13.7449 13.1135C13.503 13.3419 13.382 13.6309 13.382 13.9803V25.2296C13.382 25.5656 13.503 25.8546 13.7449 26.0965C13.9868 26.3384 14.2758 26.4594 14.6118 26.4594H18.926C20.1894 26.4594 21.352 26.157 22.4137 25.5522C23.4755 24.9339 24.3155 24.1007 24.9337 23.0523C25.5654 21.9906 25.8812 20.8415 25.8812 19.605C25.8812 18.3685 25.5654 17.2261 24.9337 16.1778C24.3155 15.116 23.4755 14.2827 22.4137 13.6779ZM21.1638 23.4959C20.4784 23.8991 19.7324 24.1007 18.926 24.1007H15.8416V15.1093H18.926C19.7324 15.1093 20.4784 15.3109 21.1638 15.7141C21.8627 16.1173 22.4137 16.6683 22.8169 17.3672C23.2201 18.0527 23.4217 18.7986 23.4217 19.605C23.4217 20.4114 23.2201 21.164 22.8169 21.8629C22.4137 22.5483 21.8627 23.0927 21.1638 23.4959Z" fill="black"/>
<path opacity="0.4" fill-rule="evenodd" clip-rule="evenodd" d="M5.7014 5.70042C1.52025 9.88156 4.29347 19.4338 11.8955 27.0358C19.4976 34.6379 29.0498 37.4111 33.231 33.23C37.4121 29.0488 34.6389 19.4966 27.0368 11.8946C19.4347 4.29249 9.88254 1.51928 5.7014 5.70042ZM22.413 13.6777C21.3512 13.0595 20.1886 12.7504 18.9253 12.7504H14.611C14.275 12.7504 13.9861 12.8713 13.7442 13.1132C13.5022 13.3417 13.3813 13.6307 13.3813 13.9801V25.2294C13.3813 25.5654 13.5022 25.8544 13.7442 26.0963C13.9861 26.3382 14.275 26.4592 14.611 26.4592H18.9253C20.1886 26.4592 21.3512 26.1568 22.413 25.552C23.4747 24.9337 24.3147 24.1004 24.933 23.0521C25.5646 21.9904 25.8805 20.8412 25.8805 19.6048C25.8805 18.3683 25.5646 17.2259 24.933 16.1776C24.3147 15.1158 23.4747 14.2825 22.413 13.6777ZM21.163 23.4956C20.4776 23.8988 19.7317 24.1004 18.9253 24.1004H15.8408V15.1091H18.9253C19.7317 15.1091 20.4776 15.3107 21.163 15.7139C21.8619 16.1171 22.413 16.6681 22.8162 17.367C23.2194 18.0524 23.421 18.7984 23.421 19.6048C23.421 20.4112 23.2194 21.1638 22.8162 21.8627C22.413 22.5481 21.8619 23.0924 21.163 23.4956Z" fill="black"/>
<path opacity="0.4" fill-rule="evenodd" clip-rule="evenodd" d="M5.7053 33.23C9.88645 37.4111 19.4386 34.6379 27.0407 27.0358C34.6428 19.4338 37.416 9.88156 33.2349 5.70042C29.0537 1.51928 19.5015 4.29249 11.8995 11.8946C4.29737 19.4966 1.52416 29.0488 5.7053 33.23ZM22.4186 13.6779C21.3568 13.0596 20.1942 12.7505 18.9309 12.7505H14.6166C14.2806 12.7505 13.9917 12.8715 13.7498 13.1134C13.5078 13.3419 13.3869 13.6308 13.3869 13.9803V25.2295C13.3869 25.5655 13.5078 25.8545 13.7498 26.0964C13.9917 26.3383 14.2806 26.4593 14.6166 26.4593H18.9309C20.1942 26.4593 21.3568 26.1569 22.4186 25.5521C23.4803 24.9339 24.3203 24.1006 24.9386 23.0523C25.5702 21.9905 25.8861 20.8414 25.8861 19.6049C25.8861 18.3684 25.5702 17.226 24.9386 16.1777C24.3203 15.1159 23.4803 14.2827 22.4186 13.6779ZM21.1686 23.4958C20.4832 23.899 19.7373 24.1006 18.9309 24.1006H15.8464V15.1092H18.9309C19.7373 15.1092 20.4832 15.3108 21.1686 15.714C21.8675 16.1172 22.4186 16.6683 22.8218 17.3671C23.225 18.0526 23.4266 18.7985 23.4266 19.6049C23.4266 20.4113 23.225 21.1639 22.8218 21.8628C22.4186 22.5483 21.8675 23.0926 21.1686 23.4958Z" fill="black"/>
</svg>
